<svg id="Layer_2" data-name="Layer 2" xmlns="http://www.w3.org/2000/svg" viewBox="0 0 200 71.17"><path d="M77.17,119.31V50.42h55.3v15H96.62V74.7h28.31V89.42H96.62v14.12h38.83v15.77Z" transform="translate(-77.17 -49.45)" style="fill:#fff"/><path d="M143.9,111.07a30.25,30.25,0,0,1-4.12-4.73c4.91-3.77,9.82-7.36,14.82-11,5.25,6.75,10.6,9.73,19.28,9.73,3.77,0,11.39-.79,11.39-5.87,0-2.28-1.84-3.59-3.77-4.3-2.71-1-9.9-1.49-13.23-1.92-5.79-.79-11.57-1.93-16.57-5a18.78,18.78,0,0,1-9.2-16.65c0-16.13,15.16-21.92,29-21.92,12,0,23.84,3.77,31.21,13.68L189,73.38c-4.91-5.61-9.9-9-17.62-9-3.06,0-9.11,1-9.11,5,0,5.08,9.64,5.17,13.23,5.78l4.65.79c5.78,1,11.83,1.67,16.83,4.82,5.7,3.69,8,9.91,8,16.48,0,17.45-16.91,23.41-31.72,23.41C163.36,120.63,151.27,117.91,143.9,111.07Z" transform="translate(-77.17 -49.45)" style="fill:#fff"/><path d="M229.12,118c-13.58-5.59-20.55-18.14-20.55-32.4,0-21.58,14.79-36.11,36.19-36.11,8.34,0,16.93,2.24,23.64,7.22A43,43,0,0,1,277.17,66L263,75.93c-3.69-6.19-8.76-10.4-16.24-10.4a19.3,19.3,0,0,0-11,3.52c-4.81,3.44-6.44,10.06-6.44,15.65,0,10.48,4.12,19.34,15.9,19.34,4.9,0,12.46-2.24,13.75-7.74H246v-15h30.86v38H261.18v-4.45c-4.3,4.47-11,5.76-16.94,5.76A41.58,41.58,0,0,1,229.12,118Z" transform="translate(-77.17 -49.45)" style="fill:#fff"/></svg>